<?xml version="1.0" encoding="UTF-8"?>
<!DOCTYPE svg PUBLIC "-//W3C//DTD SVG 1.1//EN" "http://www.w3.org/Graphics/SVG/1.1/DTD/svg11.dtd">
<svg xmlns="http://www.w3.org/2000/svg" version="1.1" width="180px" height="180px" style="shape-rendering:geometricPrecision; text-rendering:geometricPrecision; image-rendering:optimizeQuality; fill-rule:evenodd; clip-rule:evenodd" xmlns:xlink="http://www.w3.org/1999/xlink">
<g><path style="opacity:0.961" fill="#ab4041" d="M 77.5,6.5 C 80.8499,6.33499 84.1832,6.50166 87.5,7C 90.3807,8.2506 92.214,10.4173 93,13.5C 98.1398,43.3169 103.973,72.9836 110.5,102.5C 117.541,102.069 124.541,101.402 131.5,100.5C 139.612,101.728 143.112,106.395 142,114.5C 141.654,116.848 140.487,118.681 138.5,120C 130.981,121.877 123.315,122.711 115.5,122.5C 118.073,131.047 122.073,138.88 127.5,146C 131.6,148.467 135.434,151.301 139,154.5C 142.051,162.965 139.218,168.298 130.5,170.5C 121.61,168.472 114.444,163.806 109,156.5C 103.191,146.723 98.3578,136.556 94.5,126C 85.2124,127.161 75.879,128.328 66.5,129.5C 63.9806,141.895 61.1472,154.228 58,166.5C 52.2919,171.602 46.4586,171.769 40.5,167C 39.528,164.782 38.8613,162.449 38.5,160C 40.1958,151.748 42.1958,143.582 44.5,135.5C 35.1522,131.182 33.1522,124.682 38.5,116C 41.9231,114.096 45.5898,113.263 49.5,113.5C 57.7705,80.3228 65.6039,46.9895 73,13.5C 74.0121,10.7982 75.5121,8.46486 77.5,6.5 Z M 81.5,70.5 C 83.3004,81.9262 85.9671,93.2595 89.5,104.5C 89.2907,105.086 88.9574,105.586 88.5,106C 82.7219,106.476 77.0553,107.143 71.5,108C 75.1271,95.6123 78.4604,83.1123 81.5,70.5 Z"/></g>
</svg>
